<svg width="1787" height="277" viewBox="0 0 1787 277" fill="none" xmlns="http://www.w3.org/2000/svg">
<path d="M76.1724 177.928L5.5762 160.368C4.70712 160.057 3.91891 159.555 3.26957 158.899C2.62023 158.242 2.12629 157.449 1.8241 156.577C1.52191 155.704 1.41916 154.775 1.52342 153.858C1.62767 152.941 1.93627 152.059 2.42651 151.277L103.185 11.495C104.061 10.4844 105.236 9.77733 106.539 9.47534C107.842 9.17335 109.208 9.29191 110.44 9.81401C111.672 10.3361 112.706 11.2349 113.396 12.3815C114.085 13.5282 114.394 14.8637 114.277 16.1965C114.257 16.4241 114.282 16.1969 114.277 16.1965L105.38 97.7945L76.1724 177.928Z" fill="#FCFCFC"/>
<path d="M105.384 97.9795L175.98 115.539C176.849 115.85 177.638 116.352 178.287 117.008C178.937 117.665 179.431 118.458 179.733 119.33C180.036 120.203 180.139 121.132 180.034 122.049C179.93 122.966 179.622 123.849 179.132 124.631L78.373 264.413C77.4963 265.423 76.322 266.13 75.0187 266.432C73.7154 266.734 72.35 266.615 71.1183 266.093C69.8865 265.571 68.8517 264.672 68.1624 263.526C67.473 262.379 67.1644 261.044 67.2808 259.711C67.2758 259.711 67.3007 259.483 67.2808 259.711L76.176 178.113L105.384 97.9795Z" fill="#DCDCDC"/>
<path d="M701.04 215.698C657.536 215.698 627.054 184.031 627.054 138.752C627.054 92.8799 656.944 61.2137 699.856 61.2137C743.657 61.2137 771.476 90.5123 771.476 136.088V147.038L661.383 147.334C664.047 173.081 677.661 186.103 701.632 186.103C721.461 186.103 734.482 178.408 738.625 164.499H772.067C765.853 196.461 739.217 215.698 701.04 215.698ZM700.152 90.8083C678.844 90.8083 665.823 102.35 662.271 124.25H735.666C735.666 104.126 721.757 90.8083 700.152 90.8083Z" fill="#FCFCFC"/>
<path d="M489.066 167.458H521.73C522.026 180.184 531.496 188.175 548.069 188.175C564.938 188.175 569.305 181.793 574.112 170.714C576.241 163.296 570.265 157.988 557.243 155.029L530.904 148.814C504.565 142.895 486.042 131.595 491.839 107.085C498.315 79.7102 516.811 58.9015 549.845 61.2136C581.55 63.5256 602.062 80.1541 602.358 108.565H570.857C570.561 96.1352 562.275 88.1447 548.365 88.1447C534.16 88.1447 529.004 95.4248 525.873 105.606C523.063 114.743 532.384 119.219 544.814 122.179L571.153 128.393C595.716 134.016 615.426 148.018 608.146 167.754C595.422 202.251 581.55 218.435 546.885 215.698C509.875 213.811 489.066 196.165 489.066 167.458Z" fill="#FCFCFC"/>
<path d="M428.139 65.6526H464.244V211.85H430.802L428.139 192.318C419.26 206.227 400.32 215.697 380.787 215.697C347.049 215.697 327.221 192.91 327.221 157.1V65.6526H363.326V144.374C363.326 172.193 374.276 183.439 394.401 183.439C417.189 183.439 428.139 170.122 428.139 142.303V65.6526Z" fill="#FCFCFC"/>
<path d="M1717.79 216.478C1686.95 216.478 1669.28 199.411 1669.28 174.859C1669.28 148.51 1689.64 131.743 1723.17 129.048L1772.58 125.156V119.766C1772.58 87.4295 1753.42 78.1476 1730.66 78.1476C1704.01 78.1476 1688.14 90.723 1688.14 111.682H1674.37C1674.37 83.5371 1697.13 65.5721 1730.96 65.5721C1761.8 65.5721 1786.35 80.5429 1786.35 117.671V212.885H1775.27L1772.58 185.937C1762.7 205.399 1742.64 216.478 1717.79 216.478ZM1719.58 204.202C1753.42 204.202 1772.58 179.65 1772.58 144.319V136.534L1724.37 140.426C1695.33 142.821 1683.05 156.894 1683.05 174.56C1683.05 194.321 1698.02 204.202 1719.58 204.202Z" fill="#FCFCFC"/>
<path d="M1624.59 25.151C1617.71 25.151 1612.02 19.4621 1612.02 12.8749C1612.02 5.98833 1617.71 0 1624.59 0C1631.18 0 1637.17 5.98833 1637.17 12.8749C1637.17 19.4621 1631.18 25.151 1624.59 25.151ZM1617.71 212.885V69.1652H1631.48V212.885H1617.71Z" fill="#FCFCFC"/>
<path d="M1435.88 136.534C1435.88 98.5079 1460.43 65.5721 1502.95 65.5721C1529.59 65.5721 1549.65 78.7464 1559.24 102.7L1561.03 69.1651H1572.11V209.891C1572.11 250.013 1545.46 276.96 1505.34 276.96C1470.61 276.96 1445.76 257.498 1439.77 224.562H1453.24C1458.63 249.713 1478.09 264.384 1505.64 264.384C1537.38 264.384 1558.64 242.527 1558.64 209.891V170.967C1548.76 194.022 1527.5 207.495 1501.45 207.495C1460.13 207.495 1435.88 174.56 1435.88 136.534ZM1449.95 136.534C1449.95 168.272 1469.11 194.92 1502.35 194.92C1536.48 194.92 1556.24 170.068 1556.24 136.234C1556.24 102.999 1537.38 78.1476 1502.95 78.1476C1468.81 78.1476 1449.95 105.095 1449.95 136.534Z" fill="#FCFCFC"/>
<path d="M1420.19 67.0692V79.0458H1409.41C1382.76 79.0458 1365.4 98.5079 1365.4 125.455V212.885H1351.63V69.1651H1364.5L1365.7 92.2201C1371.39 76.0517 1387.26 65.5721 1407.62 65.5721C1412.11 65.5721 1415.4 65.8715 1420.19 67.0692Z" fill="#FCFCFC"/>
<path d="M1255.63 216.478C1214.01 216.478 1186.46 186.536 1186.46 141.324C1186.46 96.412 1213.71 65.5721 1253.83 65.5721C1291.26 65.5721 1317.01 92.5196 1317.01 131.743V141.324H1200.23C1201.43 180.548 1221.79 203.902 1255.63 203.902C1281.08 203.902 1297.24 192.824 1302.93 171.565H1317.01C1308.62 201.208 1287.96 216.478 1255.63 216.478ZM1253.83 78.1476C1224.49 78.1476 1203.83 98.5079 1200.53 129.947H1302.93C1302.93 98.8073 1283.47 78.1476 1253.83 78.1476Z" fill="#FCFCFC"/>
<path d="M1046.39 212.885H1032.62V69.1651H1043.7L1046.69 97.0108C1056.27 76.9499 1076.03 65.5721 1097.59 65.5721C1138.31 65.5721 1153.58 89.5254 1153.58 125.455V212.885H1139.81V128.15C1139.81 90.1242 1123.34 78.1476 1097.29 78.1476C1064.66 78.1476 1046.39 102.4 1046.39 138.63V212.885Z" fill="#FCFCFC"/>
<path d="M936.618 216.478C894.999 216.478 867.453 186.536 867.453 141.324C867.453 96.412 894.7 65.5721 934.822 65.5721C972.249 65.5721 997.999 92.5196 997.999 131.743V141.324H881.226C882.424 180.548 902.784 203.902 936.618 203.902C962.069 203.902 978.237 192.824 983.926 171.565H997.999C989.615 201.208 968.955 216.478 936.618 216.478ZM934.822 78.1476C905.479 78.1476 884.819 98.5079 881.526 129.947H983.926C983.926 98.8073 964.464 78.1476 934.822 78.1476Z" fill="#FCFCFC"/>
</svg>
