<svg width="836" height="130" viewBox="0 0 836 130" fill="none" xmlns="http://www.w3.org/2000/svg">
<path d="M35.6162 83.655L2.60705 75.4445C2.20069 75.2989 1.83214 75.0641 1.52853 74.7573C1.22491 74.4505 0.993957 74.0795 0.85266 73.6716C0.711363 73.2638 0.663321 72.8294 0.712066 72.4005C0.760812 71.9716 0.905107 71.5591 1.13433 71.1934L48.2465 5.83481C48.6564 5.36225 49.2055 5.03167 49.8149 4.89046C50.4243 4.74926 51.0628 4.80469 51.6388 5.04882C52.2148 5.29294 52.6986 5.71321 53.021 6.24934C53.3433 6.78547 53.4876 7.40992 53.4331 8.03311C53.4238 8.13954 53.4354 8.03332 53.4331 8.03311L49.2729 46.1864L35.6162 83.655Z" fill="#2C2C2C"/>
<path d="M49.2748 46.2729L82.2839 54.4834C82.6904 54.6288 83.059 54.8636 83.3627 55.1704C83.6664 55.4772 83.8975 55.8482 84.0389 56.256C84.1802 56.6639 84.2284 57.0983 84.1797 57.5273C84.131 57.9562 83.9867 58.3687 83.7575 58.7346L36.6452 124.093C36.2352 124.566 35.6862 124.896 35.0768 125.037C34.4674 125.178 33.8289 125.123 33.253 124.879C32.6771 124.635 32.1932 124.215 31.8709 123.678C31.5485 123.142 31.4042 122.518 31.4587 121.895C31.4564 121.895 31.468 121.788 31.4587 121.895L35.6179 83.7414L49.2748 46.2729Z" fill="#0C0C0C"/>
<path d="M327.79 101.315C307.448 101.315 293.195 86.5088 293.195 65.337C293.195 43.8885 307.171 29.0821 327.236 29.0821C347.716 29.0821 360.724 42.7815 360.724 64.0916V69.2116L309.247 69.35C310.492 81.3888 316.858 87.4774 328.066 87.4774C337.338 87.4774 343.426 83.8796 345.364 77.3758H361C358.094 92.3206 345.64 101.315 327.79 101.315ZM327.375 42.9198C317.411 42.9198 311.323 48.3166 309.662 58.5565H343.98C343.98 49.1468 337.476 42.9198 327.375 42.9198Z" fill="#0C0C0C"/>
<path d="M228.676 78.7596H243.948C244.087 84.7099 248.515 88.4461 256.264 88.4461C264.152 88.4461 266.194 85.4623 268.441 80.2818C269.437 76.8137 266.642 74.3315 260.554 72.9478L248.238 70.0418C235.923 67.2743 227.261 61.9908 229.972 50.5306C233 37.7307 241.649 28.001 257.094 29.0821C271.919 30.1631 281.51 37.9382 281.648 51.2225H266.919C266.781 45.4106 262.906 41.6744 256.402 41.6744C249.76 41.6744 247.349 45.0784 245.886 49.8387C244.572 54.1111 248.93 56.2041 254.742 57.5879L267.058 60.4938C278.543 63.123 287.758 69.67 284.355 78.898C278.405 95.0276 271.919 102.595 255.711 101.315C238.405 100.433 228.676 92.1822 228.676 78.7596Z" fill="#0C0C0C"/>
<path d="M200.187 31.1577H217.069V99.5162H201.433L200.187 90.3833C196.036 96.887 187.18 101.315 178.047 101.315C162.272 101.315 153 90.66 153 73.9163V31.1577H169.883V67.9661C169.883 80.9736 175.003 86.2319 184.412 86.2319C195.067 86.2319 200.187 80.0049 200.187 66.9975V31.1577Z" fill="#0C0C0C"/>
<path d="M803.196 101.68C788.776 101.68 780.516 93.7 780.516 82.22C780.516 69.9 790.036 62.06 805.716 60.8L828.816 58.98V56.46C828.816 41.34 819.856 37 809.216 37C796.756 37 789.336 42.88 789.336 52.68H782.896C782.896 39.52 793.536 31.12 809.356 31.12C823.776 31.12 835.256 38.12 835.256 55.48V100H830.076L828.816 87.4C824.196 96.5 814.816 101.68 803.196 101.68ZM804.036 95.94C819.856 95.94 828.816 84.46 828.816 67.94V64.3L806.276 66.12C792.696 67.24 786.956 73.82 786.956 82.08C786.956 91.32 793.956 95.94 804.036 95.94Z" fill="#0C0C0C"/>
<path d="M759.622 12.22C756.402 12.22 753.742 9.55999 753.742 6.47999C753.742 3.25999 756.402 0.459991 759.622 0.459991C762.702 0.459991 765.502 3.25999 765.502 6.47999C765.502 9.55999 762.702 12.22 759.622 12.22ZM756.402 100V32.8H762.842V100H756.402Z" fill="#0C0C0C"/>
<path d="M671.382 64.3C671.382 46.52 682.862 31.12 702.742 31.12C715.202 31.12 724.582 37.28 729.062 48.48L729.902 32.8H735.082V98.6C735.082 117.36 722.622 129.96 703.862 129.96C687.622 129.96 676.002 120.86 673.202 105.46H679.502C682.022 117.22 691.122 124.08 704.002 124.08C718.842 124.08 728.782 113.86 728.782 98.6V80.4C724.162 91.18 714.222 97.48 702.042 97.48C682.722 97.48 671.382 82.08 671.382 64.3ZM677.962 64.3C677.962 79.14 686.922 91.6 702.462 91.6C718.422 91.6 727.662 79.98 727.662 64.16C727.662 48.62 718.842 37 702.742 37C686.782 37 677.962 49.6 677.962 64.3Z" fill="#0C0C0C"/>
<path d="M664.048 31.82V37.42H659.008C646.548 37.42 638.428 46.52 638.428 59.12V100H631.988V32.8H638.008L638.568 43.58C641.228 36.02 648.648 31.12 658.168 31.12C660.268 31.12 661.808 31.26 664.048 31.82Z" fill="#0C0C0C"/>
<path d="M587.101 101.68C567.641 101.68 554.761 87.68 554.761 66.54C554.761 45.54 567.501 31.12 586.261 31.12C603.761 31.12 615.801 43.72 615.801 62.06V66.54H561.201C561.761 84.88 571.281 95.8 587.101 95.8C599.001 95.8 606.561 90.62 609.221 80.68H615.801C611.881 94.54 602.221 101.68 587.101 101.68ZM586.261 37C572.541 37 562.881 46.52 561.341 61.22H609.221C609.221 46.66 600.121 37 586.261 37Z" fill="#0C0C0C"/>
<path d="M489.268 100H482.828V32.8H488.008L489.408 45.82C493.888 36.44 503.128 31.12 513.208 31.12C532.248 31.12 539.388 42.32 539.388 59.12V100H532.948V60.38C532.948 42.6 525.248 37 513.068 37C497.808 37 489.268 48.34 489.268 65.28V100Z" fill="#0C0C0C"/>
<path d="M437.94 101.68C418.48 101.68 405.6 87.68 405.6 66.54C405.6 45.54 418.34 31.12 437.1 31.12C454.6 31.12 466.64 43.72 466.64 62.06V66.54H412.04C412.6 84.88 422.12 95.8 437.94 95.8C449.84 95.8 457.4 90.62 460.06 80.68H466.64C462.72 94.54 453.06 101.68 437.94 101.68ZM437.1 37C423.38 37 413.72 46.52 412.18 61.22H460.06C460.06 46.66 450.96 37 437.1 37Z" fill="#0C0C0C"/>
</svg>
