<svg width="947" height="199" viewBox="0 0 947 199" fill="none"
  xmlns="http://www.w3.org/2000/svg">
  <path d="M92.6156 117.655L59.6064 109.445C59.2001 109.299 58.8315 109.064 58.5279 108.757C58.2243 108.45 57.9933 108.079 57.852 107.672C57.7108 107.264 57.6627 106.829 57.7115 106.401C57.7602 105.972 57.9045 105.559 58.1337 105.193L105.246 39.8348C105.656 39.3623 106.205 39.0317 106.814 38.8905C107.424 38.7493 108.062 38.8047 108.638 39.0488C109.214 39.293 109.698 39.7132 110.02 40.2494C110.343 40.7855 110.487 41.4099 110.432 42.0331C110.423 42.1396 110.435 42.0333 110.432 42.0331L106.272 80.1864L92.6156 117.655Z" fill="#2C2C2C"/>
  <path d="M106.274 80.2727L139.283 88.4832C139.69 88.6286 140.058 88.8634 140.362 89.1702C140.666 89.477 140.897 89.8479 141.038 90.2558C141.18 90.6637 141.228 91.0981 141.179 91.527C141.13 91.956 140.986 92.3685 140.757 92.7343L93.6445 158.093C93.2346 158.565 92.6856 158.896 92.0762 159.037C91.4668 159.178 90.8283 159.123 90.2524 158.879C89.6765 158.635 89.1926 158.214 88.8703 157.678C88.5479 157.142 88.4036 156.518 88.4581 155.895C88.4557 155.894 88.4674 155.788 88.4581 155.895L92.6173 117.741L106.274 80.2727Z" fill="#0C0C0C"/>
  <path d="M384.79 135.315C364.448 135.315 350.195 120.509 350.195 99.337C350.195 77.8884 364.171 63.082 384.236 63.082C404.716 63.082 417.724 76.7814 417.724 98.0915V103.212L366.247 103.35C367.492 115.389 373.858 121.477 385.066 121.477C394.338 121.477 400.426 117.88 402.364 111.376H418C415.094 126.321 402.64 135.315 384.79 135.315ZM384.375 76.9198C374.411 76.9198 368.323 82.3165 366.662 92.5564H400.98C400.98 83.1468 394.476 76.9198 384.375 76.9198Z" fill="#0C0C0C"/>
  <path d="M285.676 112.76H300.948C301.087 118.71 305.515 122.446 313.264 122.446C321.152 122.446 323.194 119.462 325.441 114.282C326.437 110.814 323.642 108.332 317.554 106.948L305.238 104.042C292.923 101.274 284.261 95.9908 286.972 84.5306C290 71.7307 298.649 62.001 314.094 63.0821C328.919 64.1631 338.51 71.9382 338.648 85.2225H323.919C323.781 79.4106 319.906 75.6744 313.402 75.6744C306.76 75.6744 304.349 79.0784 302.886 83.8387C301.572 88.1111 305.93 90.2041 311.742 91.5879L324.058 94.4938C335.543 97.1229 344.758 103.67 341.355 112.898C335.405 129.028 328.919 136.595 312.711 135.315C295.405 134.433 285.676 126.182 285.676 112.76Z" fill="#0C0C0C"/>
  <path d="M257.187 65.1572H274.069V133.516H258.433L257.187 124.383C253.036 130.887 244.18 135.315 235.047 135.315C219.272 135.315 210 124.66 210 107.916V65.1572H226.883V101.966C226.883 114.973 232.003 120.231 241.412 120.231C252.067 120.231 257.187 114.005 257.187 100.997V65.1572Z" fill="#0C0C0C"/>
  <path d="M860.196 135.68C845.776 135.68 837.516 127.7 837.516 116.22C837.516 103.9 847.036 96.0601 862.716 94.8001L885.816 92.9801V90.4601C885.816 75.3401 876.856 71.0001 866.216 71.0001C853.756 71.0001 846.336 76.8801 846.336 86.6801H839.896C839.896 73.5201 850.536 65.1201 866.356 65.1201C880.776 65.1201 892.256 72.1201 892.256 89.4801V134H887.076L885.816 121.4C881.196 130.5 871.816 135.68 860.196 135.68ZM861.036 129.94C876.856 129.94 885.816 118.46 885.816 101.94V98.3001L863.276 100.12C849.696 101.24 843.956 107.82 843.956 116.08C843.956 125.32 850.956 129.94 861.036 129.94Z" fill="#0C0C0C"/>
  <path d="M816.622 46.22C813.402 46.22 810.742 43.56 810.742 40.48C810.742 37.26 813.402 34.46 816.622 34.46C819.702 34.46 822.502 37.26 822.502 40.48C822.502 43.56 819.702 46.22 816.622 46.22ZM813.402 134V66.8H819.842V134H813.402Z" fill="#0C0C0C"/>
  <path d="M728.382 98.3001C728.382 80.5201 739.862 65.1201 759.742 65.1201C772.202 65.1201 781.582 71.2801 786.062 82.4801L786.902 66.8001H792.082V132.6C792.082 151.36 779.622 163.96 760.862 163.96C744.622 163.96 733.002 154.86 730.202 139.46H736.502C739.022 151.22 748.122 158.08 761.002 158.08C775.842 158.08 785.782 147.86 785.782 132.6V114.4C781.162 125.18 771.222 131.48 759.042 131.48C739.722 131.48 728.382 116.08 728.382 98.3001ZM734.962 98.3001C734.962 113.14 743.922 125.6 759.462 125.6C775.422 125.6 784.662 113.98 784.662 98.1601C784.662 82.6201 775.842 71.0001 759.742 71.0001C743.782 71.0001 734.962 83.6001 734.962 98.3001Z" fill="#0C0C0C"/>
  <path d="M721.048 65.8201V71.4201H716.008C703.548 71.4201 695.428 80.5201 695.428 93.1201V134H688.988V66.8001H695.008L695.568 77.5801C698.228 70.0201 705.648 65.1201 715.168 65.1201C717.268 65.1201 718.808 65.2601 721.048 65.8201Z" fill="#0C0C0C"/>
  <path d="M644.101 135.68C624.641 135.68 611.761 121.68 611.761 100.54C611.761 79.5401 624.501 65.1201 643.261 65.1201C660.761 65.1201 672.801 77.7201 672.801 96.0601V100.54H618.201C618.761 118.88 628.281 129.8 644.101 129.8C656.001 129.8 663.561 124.62 666.221 114.68H672.801C668.881 128.54 659.221 135.68 644.101 135.68ZM643.261 71.0001C629.541 71.0001 619.881 80.5201 618.341 95.2201H666.221C666.221 80.6601 657.121 71.0001 643.261 71.0001Z" fill="#0C0C0C"/>
  <path d="M546.268 134H539.828V66.8001H545.008L546.408 79.8201C550.888 70.4401 560.128 65.1201 570.208 65.1201C589.248 65.1201 596.388 76.3201 596.388 93.1201V134H589.948V94.3801C589.948 76.6001 582.248 71.0001 570.068 71.0001C554.808 71.0001 546.268 82.3401 546.268 99.2801V134Z" fill="#0C0C0C"/>
  <path d="M494.941 135.68C475.481 135.68 462.601 121.68 462.601 100.54C462.601 79.5401 475.341 65.1201 494.101 65.1201C511.601 65.1201 523.641 77.7201 523.641 96.0601V100.54H469.041C469.601 118.88 479.121 129.8 494.941 129.8C506.841 129.8 514.401 124.62 517.061 114.68H523.641C519.721 128.54 510.061 135.68 494.941 135.68ZM494.101 71.0001C480.381 71.0001 470.721 80.5201 469.181 95.2201H517.061C517.061 80.6601 507.961 71.0001 494.101 71.0001Z" fill="#0C0C0C"/>
</svg>
